<svg id="Layer_1" data-name="Layer 1" xmlns="http://www.w3.org/2000/svg" viewBox="0 0 540.68 335.58"><defs><style>.cls-1{fill:#fff;}</style></defs><path class="cls-1" d="M693.38,248.7c-8.81-55.22-17.44-89.42-34.91-101.89-44-33.62-260-20.79-260-20.79-31.35,1.35-47.21,6.84-70.3,21.88a233.87,233.87,0,0,0-18.91,14.34c70.92-5.73,127.42-7.37,201.33-2.75,6.44.4,9.66,0,2.82,13.68s-29.78,55.93-29.78,55.93-5.83,6.13-19.72,5.23C443.07,233,300.17,237,247.81,231.48,195.49,248.72,181,261,179,270.88c0,.15-4.29,11.94,13.47,17,12.16,3.44,124.71,4.79,124.71,4.79s36,.59,54.76-4.39c23.35-6.22,62.15-15.3,69.65-17C456.29,268,462,277,457,291.4c-7.1,20.62-10.39,23.64-39.92,25-136.8,6.4-250.65-6.33-250.09-10.4-2.85,1.7-7.54,5.33-9.18,11.49-1.16,4.32-.8,18.58,0,33.07,5.78,3.69,5.55,7.17,57.14,10.43,87.88,5.58,172.2,8.35,183.2,8.14,8.39-.15,16-.95,11.59,8.89s-8.07,16.72-51.2,18.58-128.71-5.63-153.83-8c-33.42-3.15-42.27-10.57-45.12-13.58.93,11.15.54,16.06,9.53,22.35C171.45,410,177,426,189.49,433.16c19.33,11.07,38,7.5,47.61,4.49,8.94-2.82,16.63-11.79,22-24.23,50.6,4.32,99.11,4.27,112.9,4.27,13.32,0,39.8.74,58.72-1.35,2.39,12.48,8,28.28,20.3,35.32,19.32,11.07,38,7.5,47.6,4.48,15.54-4.89,27.36-28.31,29.81-56.41l105.27-18.28c1.57,7.1,4.69,14.63,10.66,18.64,9.19,6.17,19.37,8,31.83,5.24a2.14,2.14,0,0,0,1.06-.47c14.16-6.41,22.84-41.57,16.79-67.32C696.33,328,701.34,298.69,693.38,248.7ZM517.21,392.26c-.68,23-10,41.34-20.77,41s-19-19.2-18.34-42.17,10-41.34,20.76-41S517.87,369.29,517.21,392.26ZM525,356.62c-7.88-29.15-21.32-35.95-47.32-33.26,20.22-29.09,48.37-11.12,47.66,21.9C525.25,349.08,525.13,352.89,525,356.62ZM597.72,246c-19,.67-41.43,2.22-57.55,3.45,0-1.94-.1-3.92-.2-5.95,9.44-1,27.51-2.91,35.07-4.22,10.46-1.81,8.45-11.27,6.24-27.92S569,197.43,559.15,197.23s-9.86,3-11.07,5.63-1,19.52-2.21,21.33c-.85,1.27-5,1.35-7.35,1.28-1.47-13.82-3.61-27.42-5.23-36.82,4.64-8.35,8.09-14.28,8.09-14.28s6.44-15.29,20.52-16.9,21.73,0,21.73,0S600.14,215.42,597.72,246Zm26.42-2.42c.37-20.52-19.22-86.82-19.22-86.82,2.64.89,30.6-4.59,47.28,9.5,13.27,11.22,20,62.9,20,74.45C664.49,242.58,657,241.4,624.14,243.58ZM688.3,362.83c-1.22,15.2-7.75,27.07-14.56,26.52S662.39,376,663.62,360.83s7.74-27.07,14.56-26.52S689.53,347.63,688.3,362.83ZM683.18,319h0s-5-4.6-21.79-2.64c7.58-19.37,27.13-16.74,31.14,15.93C690.29,325.74,687.06,321,683.18,319Z" transform="translate(-157.03 -123.61)"/></svg>